<?xml version="1.0" standalone="no"?><!DOCTYPE svg PUBLIC "-//W3C//DTD SVG 1.1//EN" "http://www.w3.org/Graphics/SVG/1.1/DTD/svg11.dtd"><svg t="1749005822472" class="icon" viewBox="0 0 1024 1024" version="1.1" xmlns="http://www.w3.org/2000/svg" p-id="3702" xmlns:xlink="http://www.w3.org/1999/xlink" width="200" height="200"><path d="M792.285096 404.23638H231.714904v603.604832H964.743619V576.694903L792.285096 404.23638z" fill="#EDEDED" p-id="3703"></path><path d="M964.583639 1023.9992H231.714904a15.998008 15.998008 0 0 1-15.998007-15.998008V404.23638a15.998008 15.998008 0 0 1 15.998007-15.998008h559.930271a15.998008 15.998008 0 0 1 11.358586 4.799403L975.942225 565.336318a15.998008 15.998008 0 0 1 4.799402 11.358585V1008.001192a15.998008 15.998008 0 0 1-16.157988 15.998008z m-716.710747-31.996015h700.552759V583.414067L785.565932 420.394368H247.872892V992.003185z" fill="#1C1C1C" p-id="3704"></path><path d="M792.285096 404.23638v172.458523H964.743619L792.285096 404.23638z" fill="#B3FFFF" p-id="3705"></path><path d="M964.583639 592.852891H792.285096a15.998008 15.998008 0 0 1-15.998008-15.998007V404.23638a15.998008 15.998008 0 0 1 27.676553-11.358586L975.942225 565.336318a15.998008 15.998008 0 0 1-11.358586 27.516573z m-156.300536-31.996015h117.265397l-117.105416-117.585357V560.056975zM684.458524 592.852891h-21.597311a15.998008 15.998008 0 1 1 0-31.996015h21.597311a15.998008 15.998008 0 0 1 0 31.996015z m-86.229262 0h-63.992031a15.998008 15.998008 0 1 1 0-31.996015h63.992031a15.998008 15.998008 0 1 1 0 31.996015z m-129.263903 0H448.007969a15.998008 15.998008 0 1 1 0-31.996015h21.59731a15.998008 15.998008 0 0 1-0.63992 31.996015z m-86.229262 0h-63.992031a15.998008 15.998008 0 1 1 0-31.996015h63.992031a15.998008 15.998008 0 1 1 0 31.996015zM448.007969 506.62363h-130.063803a15.998008 15.998008 0 1 1 0-31.996016H448.007969a15.998008 15.998008 0 0 1 0 31.996016z" fill="#1C1C1C" p-id="3706"></path><path d="M731.812626 122.191503a150.701233 150.701233 0 0 0-48.953903 8.638925 184.93697 184.93697 0 0 0-342.037406 0 150.701233 150.701233 0 0 0-48.953904-8.638925 143.98207 143.98207 0 0 0-146.541751 141.102429 143.98207 143.98207 0 0 0 146.541751 141.102428h439.945213a143.98207 143.98207 0 0 0 146.541751-141.102428 143.98207 143.98207 0 0 0-146.541751-141.102429z" fill="#00CCF6" p-id="3707"></path><path d="M731.812626 420.394368H292.187374a159.980077 159.980077 0 0 1-162.859719-157.260416 159.980077 159.980077 0 0 1 162.859719-157.260417 158.540257 158.540257 0 0 1 39.835039 5.279343 201.414918 201.414918 0 0 1 360.115154 0 158.540257 158.540257 0 0 1 39.83504-5.279343 159.980077 159.980077 0 0 1 162.699738 157.260417 159.980077 159.980077 0 0 1-162.859719 157.260416zM292.187374 138.349491a127.984062 127.984062 0 0 0-130.383764 124.944441 127.984062 127.984062 0 0 0 130.383764 124.94444h439.625252a127.984062 127.984062 0 0 0 130.383764-124.94444 127.984062 127.984062 0 0 0-130.383764-124.944441 133.743345 133.743345 0 0 0-43.834541 7.679044 15.998008 15.998008 0 0 1-20.31747-9.438825 168.778982 168.778982 0 0 0-311.801171 0 15.998008 15.998008 0 0 1-19.837529 9.438825 133.743345 133.743345 0 0 0-43.834541-7.679044z" fill="#1C1C1C" p-id="3708"></path><path d="M328.822811 208.100805a15.998008 15.998008 0 0 1-15.998007-15.998008 185.89685 185.89685 0 0 1 12.798406-67.991533 15.998008 15.998008 0 1 1 30.076254 11.838526 153.580874 153.580874 0 0 0-10.718665 56.153007 15.998008 15.998008 0 0 1-16.157988 15.998008z" fill="#1C1C1C" p-id="3709"></path><path d="M522.718665 447.431001l107.826572-150.861213h-64.631951V145.708575h-86.229262v150.861213h-64.631951l107.666592 150.861213z" fill="#00DC7D" p-id="3710"></path><path d="M522.718665 464.068929a15.998008 15.998008 0 0 1-13.118366-6.719163l-107.826572-150.861213a15.998008 15.998008 0 0 1 13.118366-25.596813h47.994023V145.548595a15.998008 15.998008 0 0 1 15.998008-15.998008h86.229262a15.998008 15.998008 0 0 1 15.998007 15.998008v134.703225h47.994024a15.998008 15.998008 0 0 1 13.118366 25.596812l-106.226771 151.021193a15.998008 15.998008 0 0 1-13.278347 7.199104z m-76.310497-151.341153l76.310497 106.866691 76.310497-106.866691h-33.115876a15.998008 15.998008 0 0 1-15.998008-15.998008v-134.863205H496.001992v134.703225a15.998008 15.998008 0 0 1-15.998007 15.998008h-33.595817z" fill="#1C1C1C" p-id="3711"></path><path d="M317.944166 921.611951h86.229262v86.229261h-86.229262z" fill="#00CCF6" p-id="3712"></path><path d="M404.173428 1023.9992h-86.229262a15.998008 15.998008 0 0 1-15.998008-15.998008v-86.389241a15.998008 15.998008 0 0 1 15.998008-15.998008h86.229262a15.998008 15.998008 0 0 1 15.998008 15.998008V1008.001192a15.998008 15.998008 0 0 1-15.998008 15.998008z m-70.071274-31.996015h53.913286v-54.233247h-53.913286V992.003185z" fill="#1C1C1C" p-id="3713"></path><path d="M404.173428 921.611951h129.263902v86.229261h-129.263902z" fill="#EDEDED" p-id="3714"></path><path d="M533.59731 1023.9992h-129.423882a15.998008 15.998008 0 0 1-15.998008-15.998008v-86.389241a15.998008 15.998008 0 0 1 15.998008-15.998008h129.263902a15.998008 15.998008 0 0 1 15.998008 15.998008V1008.001192a15.998008 15.998008 0 0 1-15.838028 15.998008z m-113.105914-31.996015h96.947927v-54.233247h-97.107907V992.003185z" fill="#1C1C1C" p-id="3715"></path><path d="M533.59731 921.611951h129.263903v86.229261h-129.263903z" fill="#EDEDED" p-id="3716"></path><path d="M662.861213 1023.9992h-129.263903a15.998008 15.998008 0 0 1-15.998007-15.998008v-86.389241a15.998008 15.998008 0 0 1 15.998007-15.998008h129.263903a15.998008 15.998008 0 0 1 15.998008 15.998008V1008.001192a15.998008 15.998008 0 0 1-15.998008 15.998008z m-113.105915-31.996015h96.947927v-54.233247h-96.947927V992.003185z" fill="#1C1C1C" p-id="3717"></path><path d="M662.861213 921.611951H878.354377v86.229261H662.861213z" fill="#FFAB3B" p-id="3718"></path><path d="M878.514358 1023.9992H662.861213a15.998008 15.998008 0 0 1-15.998008-15.998008v-86.389241a15.998008 15.998008 0 0 1 15.998008-15.998008h215.653145a15.998008 15.998008 0 0 1 15.998007 15.998008V1008.001192a15.998008 15.998008 0 0 1-15.998007 15.998008z m-199.495157-31.996015h183.177189v-54.233247H679.019201V992.003185z" fill="#1C1C1C" p-id="3719"></path><path d="M317.944166 835.382689h86.229262v86.229262h-86.229262z" fill="#00CCF6" p-id="3720"></path><path d="M404.173428 937.769938h-86.229262a15.998008 15.998008 0 0 1-15.998008-15.998007v-86.389242a15.998008 15.998008 0 0 1 15.998008-15.998008h86.229262a15.998008 15.998008 0 0 1 15.998008 15.998008v86.229262a15.998008 15.998008 0 0 1-15.998008 16.157987z m-70.071274-31.996015h53.913286v-54.233246h-53.913286v53.913286z" fill="#1C1C1C" p-id="3721"></path><path d="M404.173428 835.382689h129.263902v86.229262h-129.263902z" fill="#EDEDED" p-id="3722"></path><path d="M533.59731 937.769938h-129.423882a15.998008 15.998008 0 0 1-15.998008-15.998007v-86.389242a15.998008 15.998008 0 0 1 15.998008-15.998008h129.263902a15.998008 15.998008 0 0 1 15.998008 15.998008v86.229262a15.998008 15.998008 0 0 1-15.838028 16.157987z m-113.105914-31.996015h96.947927v-54.233246h-97.107907v53.913286z" fill="#1C1C1C" p-id="3723"></path><path d="M533.59731 835.382689h129.263903v86.229262h-129.263903z" fill="#EDEDED" p-id="3724"></path><path d="M662.861213 937.769938h-129.263903a15.998008 15.998008 0 0 1-15.998007-15.998007v-86.389242a15.998008 15.998008 0 0 1 15.998007-15.998008h129.263903a15.998008 15.998008 0 0 1 15.998008 15.998008v86.229262a15.998008 15.998008 0 0 1-15.998008 16.157987z m-113.105915-31.996015h96.947927v-54.233246h-96.947927v53.913286z" fill="#1C1C1C" p-id="3725"></path><path d="M662.861213 835.382689H878.354377v86.229262H662.861213z" fill="#00DC7D" p-id="3726"></path><path d="M878.514358 937.769938H662.861213a15.998008 15.998008 0 0 1-15.998008-15.998007v-86.389242a15.998008 15.998008 0 0 1 15.998008-15.998008h215.653145a15.998008 15.998008 0 0 1 15.998007 15.998008v86.229262a15.998008 15.998008 0 0 1-15.998007 16.157987z m-199.335177-31.996015h183.017209v-54.233246H679.019201v53.913286z" fill="#1C1C1C" p-id="3727"></path><path d="M317.944166 749.153427h86.229262v86.229262h-86.229262z" fill="#00CCF6" p-id="3728"></path><path d="M404.173428 851.540677h-86.229262a15.998008 15.998008 0 0 1-15.998008-15.998008v-86.389242a15.998008 15.998008 0 0 1 15.998008-15.998008h86.229262a15.998008 15.998008 0 0 1 15.998008 15.998008v86.229262a15.998008 15.998008 0 0 1-15.998008 16.157988z m-70.071274-31.996016h53.913286v-54.233246h-53.913286v53.913286z" fill="#1C1C1C" p-id="3729"></path><path d="M404.173428 749.153427h129.263902v86.229262h-129.263902z" fill="#EDEDED" p-id="3730"></path><path d="M533.59731 851.540677h-129.423882a15.998008 15.998008 0 0 1-15.998008-15.998008v-86.389242a15.998008 15.998008 0 0 1 15.998008-15.998008h129.263902a15.998008 15.998008 0 0 1 15.998008 15.998008v86.229262a15.998008 15.998008 0 0 1-15.838028 16.157988z m-113.105914-31.996016h96.947927v-54.233246h-97.107907v53.913286z" fill="#1C1C1C" p-id="3731"></path><path d="M533.59731 749.153427h129.263903v86.229262h-129.263903z" fill="#EDEDED" p-id="3732"></path><path d="M662.861213 851.540677h-129.263903a15.998008 15.998008 0 0 1-15.998007-15.998008v-86.389242a15.998008 15.998008 0 0 1 15.998007-15.998008h129.263903a15.998008 15.998008 0 0 1 15.998008 15.998008v86.229262a15.998008 15.998008 0 0 1-15.998008 16.157988z m-113.105915-31.996016h96.947927v-54.233246h-96.947927v53.913286z" fill="#1C1C1C" p-id="3733"></path><path d="M662.861213 749.153427H878.354377v86.229262H662.861213z" fill="#FFAB3B" p-id="3734"></path><path d="M878.514358 851.540677H662.861213a15.998008 15.998008 0 0 1-15.998008-15.998008v-86.389242a15.998008 15.998008 0 0 1 15.998008-15.998008h215.653145a15.998008 15.998008 0 0 1 15.998007 15.998008v86.229262a15.998008 15.998008 0 0 1-15.998007 16.157988z m-199.335177-31.996016h183.017209v-54.233246H679.019201v53.913286z" fill="#1C1C1C" p-id="3735"></path><path d="M317.944166 662.924165h86.229262v86.229262h-86.229262z" fill="#00CCF6" p-id="3736"></path><path d="M404.173428 765.311415h-86.229262a15.998008 15.998008 0 0 1-15.998008-15.998008v-86.389242a15.998008 15.998008 0 0 1 15.998008-15.998008h86.229262a15.998008 15.998008 0 0 1 15.998008 15.998008v86.229262a15.998008 15.998008 0 0 1-15.998008 16.157988z m-70.071274-31.996016h53.913286v-54.233246h-53.913286v53.913286z" fill="#1C1C1C" p-id="3737"></path><path d="M404.173428 662.924165h129.263902v86.229262h-129.263902z" fill="#EDEDED" p-id="3738"></path><path d="M533.59731 765.311415h-129.423882a15.998008 15.998008 0 0 1-15.998008-15.998008v-86.389242a15.998008 15.998008 0 0 1 15.998008-15.998008h129.263902a15.998008 15.998008 0 0 1 15.998008 15.998008v86.229262a15.998008 15.998008 0 0 1-15.838028 16.157988z m-113.105914-31.996016h96.947927v-54.233246h-97.107907v53.913286z" fill="#1C1C1C" p-id="3739"></path><path d="M533.59731 662.924165h129.263903v86.229262h-129.263903z" fill="#EDEDED" p-id="3740"></path><path d="M662.861213 765.311415h-129.263903a15.998008 15.998008 0 0 1-15.998007-15.998008v-86.389242a15.998008 15.998008 0 0 1 15.998007-15.998008h129.263903a15.998008 15.998008 0 0 1 15.998008 15.998008v86.229262a15.998008 15.998008 0 0 1-15.998008 16.157988z m-113.105915-31.996016h96.947927v-54.233246h-96.947927v53.913286z" fill="#1C1C1C" p-id="3741"></path><path d="M662.861213 662.924165H878.354377v86.229262H662.861213z" fill="#FF764C" p-id="3742"></path><path d="M878.514358 765.311415H662.861213a15.998008 15.998008 0 0 1-15.998008-15.998008v-86.389242a15.998008 15.998008 0 0 1 15.998008-15.998008h215.653145a15.998008 15.998008 0 0 1 15.998007 15.998008v86.229262a15.998008 15.998008 0 0 1-15.998007 16.157988z m-199.335177-31.996016h183.017209v-54.233246H679.019201v53.913286z" fill="#1C1C1C" p-id="3743"></path><path d="M145.485642 447.431001h86.229262v560.410211H145.485642z" fill="#B7BCC0" p-id="3744"></path><path d="M231.714904 1023.9992H145.485642a15.998008 15.998008 0 0 1-15.998007-15.998008V448.070921a15.998008 15.998008 0 0 1 15.998007-15.998008h86.229262a15.998008 15.998008 0 0 1 15.998008 15.998008v559.930271a15.998008 15.998008 0 0 1-15.998008 15.998008z m-70.071274-31.996015h53.913286V464.068929h-53.753306v527.934256z" fill="#1C1C1C" p-id="3745"></path><path d="M59.416361 490.465642H145.645623v517.37557H59.416361z" fill="#7C858F" p-id="3746"></path><path d="M145.485642 1023.9992H59.416361a15.998008 15.998008 0 0 1-15.998008-15.998008V490.465642a15.998008 15.998008 0 0 1 15.998008-15.998008h86.069281a15.998008 15.998008 0 0 1 15.998008 15.998008V1008.001192a15.998008 15.998008 0 0 1-15.998008 15.998008z m-69.911293-31.996015h53.753306V506.62363H75.574349V992.003185z" fill="#1C1C1C" p-id="3747"></path></svg>