<?xml version="1.0" standalone="no"?><!DOCTYPE svg PUBLIC "-//W3C//DTD SVG 1.1//EN" "http://www.w3.org/Graphics/SVG/1.1/DTD/svg11.dtd"><svg t="1749005868733" class="icon" viewBox="0 0 1024 1024" version="1.1" xmlns="http://www.w3.org/2000/svg" p-id="7556" xmlns:xlink="http://www.w3.org/1999/xlink" width="200" height="200"><path d="M81.92 795.306667c0 58.026667 47.786667 105.813333 105.813333 105.813333h474.453334c17.066667 0 29.013333-13.653333 29.013333-29.013333 0-17.066667-13.653333-30.72-29.013333-29.013334h-477.866667c-23.893333-3.413333-40.96-23.893333-42.666667-46.08V580.266667h244.053334l-34.133334 34.133333-5.12 5.12c0 1.706667-1.706667 3.413333-1.706666 6.826667l-10.24 136.533333c0 11.946667 6.826667 18.773333 20.48 18.773333l136.533333-10.24c3.413333 0 5.12-1.706667 6.826667-1.706666l5.12-5.12 187.733333-184.32H870.4c17.066667 0 29.013333-13.653333 29.013333-29.013334 0-17.066667-13.653333-29.013333-29.013333-29.013333H81.92v273.066667zM375.466667 740.693333l5.12-71.68 68.266666 68.266667-73.386666 3.413333z m117.76-138.24c-3.413333 3.413333-5.12 8.533333-5.12 13.653334s1.706667 8.533333 5.12 11.946666c8.533333 8.533333 18.773333 3.413333 25.6-3.413333 3.413333-3.413333 18.773333-17.066667 47.786666-44.373333h59.733334l-136.533334 131.413333-85.333333-83.626667 51.2-47.786666h61.44c-13.653333 11.946667-22.186667 20.48-23.893333 22.186666zM795.306667 233.813333h-97.28c0-39.253333-17.066667-78.506667-44.373334-107.52-29.013333-29.013333-68.266667-44.373333-109.226666-44.373333H440.32c-40.96 0-81.92 15.36-110.933333 44.373333s-44.373333 66.56-44.373334 107.52h-98.986666c-58.026667 0-105.813333 47.786667-105.813334 105.813334V494.933333h819.2v-157.013333c1.706667-56.32-46.08-104.106667-104.106666-104.106667z m-452.266667 0c1.706667-52.906667 44.373333-93.866667 97.28-92.16H546.133333c51.2 1.706667 90.453333 42.666667 92.16 92.16H343.04zM750.933333 406.186667v30.72h-47.786666v-71.68h-44.373334v71.68h-52.906666v-30.72H563.2v30.72h-47.786667v-71.68h-44.373333v71.68h-52.906667v-30.72H375.466667v30.72h-52.906667v-71.68h-44.373333v71.68h-51.2v-30.72h-44.373334v30.72H139.946667v-102.4c3.413333-23.893333 23.893333-40.96 46.08-42.666667h612.693333c23.893333 3.413333 40.96 23.893333 42.666667 46.08v97.28h-47.786667v-30.72H750.933333v1.706667z" fill="#3664D1" p-id="7557"></path><path d="M938.666667 768l-3.413334-3.413333c-13.653333-8.533333-30.72-6.826667-40.96 3.413333l-37.546666 37.546667v-168.96c-3.413333-15.36-15.36-25.6-32.426667-25.6s-32.426667 13.653333-32.426667 32.426666v163.84L752.64 768l-3.413333-3.413333c-13.653333-10.24-32.426667-6.826667-42.666667 5.12-10.24 13.653333-10.24 32.426667 1.706667 42.666666l90.453333 90.453334c13.653333 13.653333 37.546667 13.653333 51.2 0l90.453333-90.453334 3.413334-3.413333c8.533333-11.946667 6.826667-29.013333-5.12-40.96z" fill="#F55656" p-id="7558"></path></svg>